# xmcd
#
# Track frame offsets: 
#        150
#        14027
#        33316
#        51978
#        74001
#        87604
#        104185
#        121975
#
# Disc length: 1830 seconds
#
# Revision: 0
# Processed by: cddbd v1.5.2PL0 Copyright (c) Steve Scherf et al.
# Submitted via: ExactAudioCopy v0.95b4
#
DISCID=7b072408
DTITLE=The Wissler Family - The Wissler Family
DYEAR=2005
DGENRE=Country
TTITLE0=God's Country
TTITLE1=Go Home Sally
TTITLE2=One More Round
TTITLE3=Pearls and Spurs
TTITLE4=Livin' On Love
TTITLE5=The Last Thing I Needed
TTITLE6=When I Stop Dreaming
TTITLE7=What Am I Supposed To Do
EXTD=
EXTT0=
EXTT1=
EXTT2=
EXTT3=
EXTT4=
EXTT5=
EXTT6=
EXTT7=
PLAYORDER=
